# AST/ASF file generated using VICON BodyLanguage
# -----------------------------------------------
:version 1.10
:name VICON
:units
  mass 1.0
  length 0.45
  angle deg
:documentation
   .ast/.asf automatically generated from VICON data using
   VICON BodyBuilder and BodyLanguage model FoxedUp or BRILLIANT.MOD
:root
   order TX TY TZ RX RY RZ
   axis XYZ
   position 0 0 0  
   orientation 0 0 0 
:bonedata
  begin
     id 1 
     name lhipjoint
     direction 0.650112 -0.723553 0.232005 
     length 2.45805 
     axis 0 0 0  XYZ
  end
  begin
     id 2 
     name lfemur
     direction 0.34202 -0.939693 0  
     length 7.00073  
     axis 0 0 20  XYZ
    dof rx ry rz
    limits (-160.0 20.0)
           (-70.0 70.0)
           (-60.0 70.0)
  end
  begin
     id 3 
     name ltibia
     direction 0.34202 -0.939693 0   
     length 7.8748   
     axis 0 0 20   XYZ
    dof rx
    limits (-10.0 170.0)
  end
  begin
     id 4 
     name lfoot
     direction 0.0542825 -0.14914 0.987325   
     length 1.75978   
     axis -90 7.62852e-016 20   XYZ
    dof rx rz
    limits (-45.0 90.0)
           (-70.0 20.0)
  end
  begin
     id 5 
     name ltoes
     direction 1.53509e-011 -4.21906e-011 1   
     length 0.893912   
     axis -90 7.62852e-016 20   XYZ
    dof rx
    limits (-90.0 20.0)
  end
  begin
     id 6 
     name rhipjoint
     direction -0.637897 -0.733345 0.235145   
     length 2.42522  
     axis 0 0 0  XYZ 
  end
  begin
     id 7 
     name rfemur
     direction -0.34202 -0.939693 0   
     length 7.02549   
     axis 0 0 -20   XYZ
    dof rx ry rz
    limits (-160.0 20.0)
           (-70.0 70.0)
           (-70.0 60.0)
  end
  begin
     id 8 
     name rtibia
     direction -0.34202 -0.939693 0   
     length 7.71512   
     axis 0 0 -20   XYZ
    dof rx
    limits (-10.0 170.0)
 end
 begin
     id 9 
     name rfoot
     direction -0.0822618 -0.226012 0.970645   
     length 1.90014  
     axis -90 -7.62852e-016 -20   XYZ
    dof rx rz
    limits (-45.0 90.0)
           (-20.0 70.0)
  end
  begin
     id 10 
     name rtoes
     direction -1.53542e-011 -4.21872e-011 1   
     length 0.957341   
     axis -90 -7.62852e-016 -20   XYZ
    dof rx
    limits (-90.0 20.0)
  end
  begin
     id 11 
     name lowerback
     direction -0.0022947 0.999774 -0.0211557   
     length 1.89909   
     axis 0 0 0   XYZ
    dof rx ry rz
    limits (-20.0 45.0)
           (-30.0 30.0)
           (-30.0 30.0)
  end
  begin
     id 12 
     name upperback
     direction 0.0107737 0.998635 0.0511027   
     length 1.8853   
     axis 0 0 0   XYZ
    dof rx ry rz
    limits (-20.0 45.0)
           (-30.0 30.0)
           (-30.0 30.0)
  end
  begin
     id 13 
     name thorax
     direction 0.011824 0.998136 0.0598754   
     length 1.88911   
     axis 0 0 0   XYZ
    dof rx ry rz
    limits (-20.0 45.0)
           (-30.0 30.0)
           (-30.0 30.0)
  end
  begin
     id 14 
     name lowerneck
     direction -0.0685355 0.990319 0.120714   
     length 1.91222   
     axis 0 0 0   XYZ
    dof rx ry rz
    limits (-20.0 45.0)
           (-30.0 30.0)
           (-30.0 30.0)
  end
  begin
     id 15 
     name upperneck
     direction 0.0886204 0.955665 -0.280805   
     length 1.92526   
     axis 0 0 0   XYZ
    dof rx ry rz
    limits (-20.0 45.0)
           (-30.0 30.0)
           (-30.0 30.0)
  end
  begin
     id 16
     name head
     direction 0.0233423 0.993502 -0.111393  
     length 1.96056  
     axis 0 0 0   XYZ
    dof rx ry rz
    limits (-20.0 45.0)
           (-30.0 30.0)
           (-30.0 30.0)
  end
  begin
     id 17 
     name lclavicle
     direction 0.941873 0.32922 0.0670041  
     length 3.31705  
     axis 0 0 0   XYZ
    dof ry rz
    limits (-20.0 10.0)
           (0.0 20.0)
  end
  begin
     id 18 
     name lhumerus
     direction 1 -4.4898e-011 3.38707e-028   
     length 5.29277   
     axis 180 -30 -90   XYZ
    dof rx ry rz
    limits (-60.0 90.0)
           (-90.0 90.0)
           (-90.0 90.0)
  end
  begin
     id 19
     name lradius
     direction 1 -4.48952e-011 1.63213e-028   
     length 2.85226   
     axis 180 -30 -90   XYZ
    dof rx
    limits (-10.0 170.0)
  end
  begin
     id 20
     name lwrist
     direction 1 -4.49001e-011 1.27856e-027   
     length 1.42613   
     axis -1.61767e-015 90 90   XYZ
    dof ry
    limits (-180.0 0.0)
 end
  begin
     id 21 
     name lhand
     direction 1 -4.48976e-011 2.55931e-027   
     length 0.602097   
     axis -1.63363e-015 90 90   XYZ
    dof rx rz
    limits (-90.0 90.0)
           (-45.0 45.0)
  end
  begin
     id 22 
     name lfingers
     direction 1 -4.48986e-011 5.11684e-027   
     length 0.485426   
     axis -3.26723e-015 90 90   XYZ
    dof rx
    limits (0.0 90.0)
  end
  begin
     id 23
     name lthumb
     direction 0.707107 -6.34915e-011 0.707107   
     length 0.696978   
     axis -90 45 -2.25915e-014   XYZ
    dof rx rz
    limits (-45.0 45.0)
           (-45.0 45.0)
  end
  begin
     id 24 
     name rclavicle
     direction -0.939974 0.327078 0.0973096   
     length 3.10337  
     axis 0 0 0   XYZ 
    dof ry rz
    limits (-10.0 20.0)
           (-20.0 0.0)
  end
  begin
     id 25 
     name rhumerus
     direction -1 -4.48975e-011 1.83745e-027  
     length 5.13304   
     axis 180 30 90   XYZ
    dof rx ry rz
    limits (-90.0 60.0)
           (-90.0 90.0)
           (-90.0 90.0)
  end
  begin
     id 26 
     name rradius
     direction -1 -4.48977e-011 7.1775e-029   
     length 2.74305   
     axis 180 30 90   XYZ
    dof rx
    limits (-10.0 170.0)
  end
  begin
     id 27 
     name rwrist
     direction -1 -4.48977e-011 1.27963e-027   
     length 1.37152   
     axis -1.61767e-015 -90 -90   XYZ
    dof ry
    limits (-180.0 0.0)
  end
  begin
     id 28
     name rhand
     direction -1 -4.4888e-011 2.56782e-027   
     length 0.767976   
     axis -1.63363e-015 -90 -90   XYZ
    dof rx rz
    limits (-90.0 90.0)
           (-45.0 45.0)
  end
  begin
     id 29
     name rfingers
     direction -1 -4.48947e-011 5.12384e-027   
     length 0.619162   
     axis -3.26723e-015 -90 -90   XYZ
    dof rx
    limits (0.0 90.0)
  end
  begin
     id 30
     name rthumb
     direction -0.707107 -6.34857e-011 0.707107   
     length 0.888997   
     axis -90 -45 2.25915e-014   XYZ
    dof rx rz
    limits (-45.0 45.0)
           (-45.0 45.0)
  end
:hierarchy
  begin
    root lhipjoint rhipjoint lowerback
    lhipjoint lfemur
    lfemur ltibia
    ltibia lfoot
    lfoot ltoes
    rhipjoint rfemur
    rfemur rtibia
    rtibia rfoot
    rfoot rtoes
    lowerback upperback
    upperback thorax
    thorax lowerneck lclavicle rclavicle
    lowerneck upperneck
    upperneck head
    lclavicle lhumerus
    lhumerus lradius
    lradius lwrist
    lwrist lhand lthumb
    lhand lfingers
    rclavicle rhumerus
    rhumerus rradius
    rradius rwrist
    rwrist rhand rthumb
    rhand rfingers
  end

#!OML:ASF F:\VICON\USERDATA\INSTALL\rory3\rory3.ASF
:FULLY-SPECIFIED
:DEGREES
1
root -0.0359905 17.3978 0.134038 1.25356 1.90106 0.667708
lowerback -2.53615 0.247945 -3.53003
upperback -2.74605 0.388762 0.935939
thorax -1.43049 0.265222 2.94657
lowerneck -10.3919 -12.0454 -17.199
upperneck 30.1608 -18.8342 14.778
head 15.5887 -8.56055 5.61462
rclavicle -7.09413e-015 1.90833e-014
rhumerus 0 0 0
rradius 0
rwrist 0
rhand 0 0
rfingers 0
rthumb 0 0
lclavicle -7.09413e-015 1.90833e-014
lhumerus -31.9756 5.2294 89.8302
lradius 15.1509
lwrist -27.0689
lhand -7.56674 23.466
lfingers 7.12502
lthumb 18.3257 52.6228
rfemur 9.16039 10.515 19.6312
rtibia -3.33958e-014
rfoot -7.76764 -13.157
rtoes -14.6214
lfemur 3.36225 -19.6495 -20.7977
ltibia 9.19681
lfoot -12.6569 12.0543
ltoes -21.4388
2
root -0.0372986 17.4 0.133908 1.33933 1.91399 0.658312
lowerback -2.59053 0.23304 -3.55606
upperback -2.78812 0.37096 0.961102
thorax -1.44251 0.257938 2.98718
lowerneck -10.3707 -12.0296 -17.2547
upperneck 30.148 -18.8151 14.8248
head 15.5879 -8.55535 5.64942
rclavicle 1.16786e-015 3.18055e-015
rhumerus 0 0 0
rradius 0
rwrist 0
rhand 0 0
rfingers 0
rthumb 0 0
lclavicle 1.16786e-015 3.18055e-015
lhumerus -32.0136 5.30103 89.6977
lradius 15.2059
lwrist -26.9
lhand -8.01959 22.8001
lfingers 7.12502
lthumb 17.89 51.9972
rfemur 9.06963 10.5008 19.636
rtibia -3.18055e-015
rfoot -7.82382 -13.1464
rtoes -14.359
lfemur 3.27061 -19.6643 -20.7281
ltibia 9.17825
lfoot -12.7797 11.9535
ltoes -20.0889
3
root -0.0368799 17.4001 0.134052 1.34178 1.9199 0.698426
lowerback -2.59132 0.219992 -3.60112
upperback -2.78818 0.354241 0.963065
thorax -1.44131 0.250357 3.01438
lowerneck -10.3579 -12.0057 -17.31
upperneck 30.0967 -18.7818 14.8911
head 15.5702 -8.54199 5.69378
rclavicle -2.26118e-015 -6.55989e-015
rhumerus 0 0 0
rradius 0
rwrist 0
rhand 0 0
rfingers 0
rthumb 0 0
lclavicle -2.26118e-015 -6.55989e-015
lhumerus -31.9448 5.23762 89.6581
lradius 15.1491
lwrist -26.6675
lhand -8.30175 22.5923
lfingers 7.12502
lthumb 17.6185 51.8141
rfemur 9.06627 10.4949 19.5851
rtibia -3.18055e-015
rfoot -7.88451 -13.108
rtoes -13.8162
lfemur 3.2317 -19.671 -20.7729
ltibia 9.24285
lfoot -12.7039 11.9314
ltoes -19.6925
4
root -0.0357109 17.3991 0.13498 1.36213 1.89622 0.697341
lowerback -2.61281 0.233388 -3.57457
upperback -2.80617 0.372237 0.957514
thorax -1.44891 0.259277 2.99399
lowerneck -10.3485 -12.0122 -17.3054
upperneck 30.0719 -18.7829 14.8728
head 15.5528 -8.54449 5.68373
rclavicle 7.45443e-016 -1.98785e-015
rhumerus 0 0 0
rradius 0
rwrist 0
rhand 0 0
rfingers 0
rthumb 0 0
lclavicle 7.45443e-016 -1.98785e-015
lhumerus -31.9052 5.3471 89.5224
lradius 15.0839
lwrist -26.8003
lhand -8.52229 22.485
lfingers 7.12502
lthumb 17.4062 51.7257
rfemur 9.0437 10.519 19.5752
rtibia 9.54166e-015
rfoot -7.9287 -13.0793
rtoes -13.717
lfemur 3.1815 -19.6472 -20.7762
ltibia 9.31474
lfoot -12.7429 11.9352
ltoes -19.7072
5
root -0.023827 17.4151 0.145747 2.82556 2.44424 0.611449
lowerback -4.10265 0.00977287 -3.25596
upperback -3.22898 0.113878 0.920132
thorax -1.02929 0.12284 2.77592
lowerneck -10.2974 -12.0066 -17.3006
upperneck 30.0391 -18.7731 14.8613
head 15.5204 -8.5443 5.68114
rclavicle -4.89507e-015 -5.36719e-015
rhumerus 0 0 0
rradius 0
rwrist 0
rhand 0 0
rfingers 0
rthumb 0 0
lclavicle -4.89507e-015 -5.36719e-015
lhumerus -31.9128 5.66008 89.2599
lradius 15.0516
lwrist -27.2591
lhand -8.54107 22.5192
lfingers 7.12502
lthumb 17.3882 51.7615
rfemur 7.51622 9.96257 19.4005
rtibia -4.77083e-015
rfoot -7.88751 -13.043
rtoes -13.6059
lfemur 1.36861 -20.2037 -20.0514
ltibia 9.37757
lfoot -12.5094 11.9893
ltoes -20.5026
6
root -0.0225791 17.4149 0.144784 2.86633 2.44517 0.64698
lowerback -4.08672 0.0104318 -3.2341
upperback -3.27542 0.11292 0.875702
thorax -1.08567 0.123203 2.7177
lowerneck -10.2915 -12.0084 -17.2687
upperneck 30.0339 -18.7825 14.8565
head 15.5137 -8.5459 5.67168
rclavicle -1.50331e-015 -7.55382e-015
rhumerus -34.1177 -11.4739 -81.9623
rradius 21.387
rwrist 29.9116
rhand -10.7969 13.4316
rfingers 7.12502
rthumb 15.2162 -15.9888
lclavicle -1.50331e-015 -7.55382e-015
lhumerus -31.914 5.58052 89.2064
lradius 14.97
lwrist -27.2398
lhand -8.54896 22.7095
lfingers 7.12502
lthumb 17.3806 51.9524
rfemur 7.46981 9.96007 19.3476
rtibia -4.77083e-015
rfoot -7.91524 -13.0488
rtoes -14.1317
lfemur 1.26489 -20.2064 -20.085
ltibia 9.46787
lfoot -12.7133 12.0499
ltoes -20.5722
